<svg width="85" height="31" viewBox="0 0 85 31" fill="none" xmlns="http://www.w3.org/2000/svg">
<path fill-rule="evenodd" clip-rule="evenodd" d="M84.4382 12.0851C84.0581 10.9164 83.5293 9.85893 82.7857 8.93664C82.0421 8.01436 81.1333 7.34649 80.0592 6.84559C79.7535 6.68658 79.3817 6.52756 79.0678 6.44806C79.0678 6.44806 78.9521 6.38445 78.8447 6.38445C78.7951 6.38445 78.7373 6.38445 78.6794 6.32879C78.6381 6.32879 78.5803 6.32879 78.5803 6.27314L77.7954 6.11412C77.217 6.01871 76.4734 5.97101 75.6142 6.01871C74.3418 6.07437 73.2181 6.33675 72.2267 6.78199C71.1526 7.29084 70.2438 8.0064 69.5002 8.86509C68.7566 9.78737 68.2278 10.7971 67.8477 12.0215C67.4842 13.1823 67.3189 14.5022 67.3189 15.822C67.3189 17.1975 67.4842 18.4696 67.856 19.6384C68.236 20.8071 68.8227 21.8646 69.5084 22.7392C70.0455 23.3514 70.6238 23.8523 71.3261 24.3134C71.6401 24.5201 71.9044 24.6712 72.2349 24.8223H72.2762C72.2762 24.8223 72.3258 24.8223 72.3258 24.87C72.3612 24.87 72.3777 24.8859 72.3929 24.9008C72.4062 24.9136 72.4185 24.9256 72.4415 24.9256C72.9785 25.18 73.5651 25.3232 74.2013 25.4345C76.0603 25.7843 77.6549 25.5378 77.6549 25.5378C78.5059 25.4345 79.3074 25.18 80.051 24.87C81.1663 24.3611 82.0669 23.6535 82.8188 22.7869C83.5624 21.9282 84.0912 20.8548 84.4712 19.6861C84.8348 18.5173 85 17.2452 85 15.8697C85 14.5022 84.7852 13.2301 84.463 12.0533L84.4382 12.0851ZM71.9871 13.1982C72.2019 12.4032 72.4663 11.6319 72.8381 11.0197C73.2099 10.4155 73.6891 9.90663 74.2179 9.5568C74.7549 9.19902 75.3911 9.00025 76.0768 9.00025C76.7709 9.00025 77.3575 9.14336 77.8945 9.50115C78.4233 9.85098 78.8447 10.2962 79.2165 10.8687C79.5883 11.4809 79.8609 12.1408 80.0675 12.9518C80.2906 13.7628 80.398 14.5817 80.398 15.496V15.7981C80.398 16.7125 80.2906 17.6268 80.1336 18.4378C79.9188 19.2567 79.6544 19.9643 79.2826 20.5845C78.9108 21.1888 78.4316 21.642 77.8945 21.9997C77.3657 22.3575 76.7378 22.5086 76.0355 22.5086C75.3415 22.5086 74.7136 22.3496 74.1765 21.9997C73.6395 21.642 73.1603 21.1888 72.7885 20.5686C72.4084 19.9643 72.1441 19.2567 71.9292 18.4378C71.7227 17.6268 71.6648 16.7125 71.6648 15.7981C71.7227 14.9236 71.8301 14.0172 71.9953 13.2062L71.9871 13.1982ZM60.3291 25.7127L58.2636 27.9946L58.0488 28.2013L58.2636 31H61.4528L64.8072 27.3904V15.9095L64.7081 15.0349L60.3291 17.2134V25.7127Z" fill="white"/>
<path fill-rule="evenodd" clip-rule="evenodd" d="M33.4599 5.22177L31.373 3.00409L31.0976 2.81535L31.3146 0L34.5283 0.0471846L37.9841 3.61749V15.2328L37.8839 15.8776L33.4599 13.6757V5.22177ZM63.0761 8.34382C63.8274 9.25605 64.3616 10.302 64.7456 11.458L64.7623 11.4265C65.1379 12.5904 65.3049 13.8487 65.3049 15.2013C65.3049 16.5618 65.1379 17.8201 64.7706 18.9761C64.3867 20.1321 63.8524 21.1938 63.1012 22.0431C62.3499 22.9003 61.4317 23.6002 60.3048 24.1035C59.5536 24.4102 58.7439 24.6618 57.8841 24.7641C57.8841 24.7641 56.2731 25.0079 54.3949 24.6618C53.7522 24.5517 53.1595 24.4102 52.6253 24.1585C52.595 24.1585 52.5804 24.1437 52.5663 24.1294C52.5534 24.1162 52.5409 24.1035 52.5168 24.1035C52.5168 24.0563 52.4584 24.0563 52.4584 24.0563H52.4166C52.0827 23.9069 51.8156 23.7575 51.4984 23.553C50.7972 23.0969 50.2046 22.6014 49.662 21.9959C48.9692 21.1309 48.3765 20.0849 47.9925 18.9289C47.6253 17.7729 47.4583 16.5146 47.4583 15.1541C47.4583 13.8487 47.6169 12.5433 47.9842 11.3951C48.3682 10.184 48.9024 9.18528 49.6537 8.27304C50.4049 7.42372 51.3231 6.71595 52.4083 6.21264C53.4099 5.77225 54.5452 5.51274 55.8307 5.45769C56.6988 5.4105 57.4501 5.45769 58.0344 5.55206L58.8274 5.70934C58.8274 5.76439 58.8858 5.76439 58.9275 5.76439C58.9943 5.81944 59.0444 5.81944 59.0945 5.81944C59.203 5.81944 59.3199 5.88235 59.3199 5.88235C59.637 5.96099 60.0127 6.11827 60.3215 6.27556C61.4067 6.771 62.3249 7.43158 63.0761 8.34382ZM53.0761 10.4042C52.7004 11.0098 52.4333 11.7726 52.2246 12.559L52.233 12.5668C52.0187 13.3588 51.959 14.2427 51.9013 15.0975L51.8991 15.1305C51.8991 16.0349 51.9492 16.9393 52.1662 17.7414C52.3832 18.5514 52.6503 19.2513 53.026 19.849C53.4016 20.4624 53.8857 20.9107 54.42 21.2645C54.9626 21.6106 55.6053 21.7679 56.3148 21.7679C57.0076 21.7679 57.6587 21.6184 58.193 21.2645C58.7272 20.9107 59.2113 20.4624 59.5786 19.8647C59.9542 19.2513 60.2297 18.5514 60.4384 17.7414C60.6053 16.9393 60.7222 16.0349 60.7222 15.1305V14.8317C60.7222 13.9273 60.6053 13.1173 60.3883 12.3152C60.1713 11.5131 59.9042 10.8603 59.5285 10.2548C59.1529 9.68858 58.7188 9.24819 58.193 8.90217C57.6504 8.54828 57.0577 8.40673 56.3566 8.40673C55.647 8.40673 55.0126 8.60333 54.4784 8.95722C53.9358 9.30324 53.4517 9.80654 53.0761 10.4042ZM40.3881 5.53633H44.8957V25H40.3881V5.53633Z" fill="white"/>
<path fill-rule="evenodd" clip-rule="evenodd" d="M42.5069 1C41.3664 1 40.4407 1.89813 40.4407 3.00474C40.4407 4.16749 41.3664 5.0576 42.5069 5.00949C43.6475 5.00949 44.5732 4.11136 44.5732 3.00474C44.5732 1.89813 43.6475 1 42.5069 1ZM37.3 12.3468C36.9198 11.1681 36.3908 10.1015 35.647 9.17133C34.9031 8.24113 33.994 7.56754 32.9195 7.06234C32.6137 6.90196 32.2418 6.74159 31.9277 6.6614C31.9277 6.6614 31.812 6.59724 31.7046 6.59724C31.655 6.59724 31.5971 6.59724 31.5393 6.54111C31.4897 6.54111 31.4401 6.54111 31.4401 6.48498L30.6466 6.3246C30.0681 6.22837 29.3242 6.18026 28.4729 6.22837C27.2001 6.2845 26.0761 6.54913 25.0843 6.99819C24.0098 7.51141 23.1007 8.23311 22.3568 9.09916C21.613 10.0294 21.084 11.0478 20.7038 12.2827C20.3402 13.4535 20.1749 14.7846 20.1749 16.1158C20.1749 17.503 20.3402 18.7861 20.7121 19.9649C21.0923 21.1437 21.6709 22.2102 22.3651 23.0923C22.9023 23.7097 23.4809 24.2149 24.1834 24.68C24.4975 24.8885 25.1339 25.1932 25.1339 25.1932C25.1339 25.1932 25.1835 25.1932 25.1835 25.2414C25.2189 25.2414 25.2354 25.2575 25.2506 25.2724C25.2638 25.2854 25.2762 25.2975 25.2992 25.2975C25.8364 25.5541 26.415 25.6984 27.0596 25.8107C28.9193 26.1635 30.5144 25.915 30.5144 25.915C31.3657 25.8107 32.1674 25.5541 32.9113 25.2414C34.027 24.7281 34.9279 24.0145 35.68 23.1404C36.4239 22.2743 36.9528 21.1918 37.333 20.013C37.6967 18.8342 37.8537 17.5512 37.8537 16.1639C37.8537 14.7846 37.6471 13.5016 37.3248 12.3148L37.3 12.3468ZM24.8446 13.4695C25.0595 12.6676 25.324 11.8898 25.6959 11.2723C26.0678 10.6629 26.5472 10.1497 27.0761 9.79682C27.6134 9.43596 28.2498 9.23549 28.9358 9.23549C29.63 9.23549 30.2168 9.37983 30.7541 9.74068C31.283 10.0935 31.7045 10.5426 32.0765 11.1199C32.4484 11.7374 32.7129 12.403 32.9278 13.2209C33.1509 14.0389 33.2584 14.8648 33.2584 15.787V16.0917C33.2584 17.0139 33.1509 17.9361 32.9939 18.754C32.779 19.58 32.5145 20.2937 32.1426 20.9191C31.7707 21.5286 31.2913 21.9857 30.7541 22.3465C30.2251 22.7074 29.597 22.8597 28.8944 22.8597C28.2002 22.8597 27.572 22.6993 27.0348 22.3465C26.4976 21.9857 26.0182 21.5286 25.6463 20.9031C25.2661 20.2937 25.0016 19.58 24.7867 18.754C24.5801 17.9361 24.5223 17.0139 24.5223 16.0917C24.5801 15.2096 24.6876 14.2955 24.8529 13.4775L24.8446 13.4695ZM15.4721 9.17134C16.2159 10.1015 16.7449 11.1681 17.1251 12.3468L17.1416 12.3148C17.5135 13.5016 17.6788 14.7846 17.6788 16.1639C17.6788 17.5512 17.5135 18.8342 17.1499 20.013C16.7697 21.1918 16.2407 22.2743 15.4969 23.1404C14.753 24.0145 13.8439 24.7281 12.7281 25.2414C11.9843 25.5541 11.1826 25.8107 10.3313 25.915C10.3313 25.915 8.73611 26.1635 6.87648 25.8107C6.24008 25.6984 5.65326 25.5541 5.11604 25.2975C5.09557 25.2975 5.08356 25.2975 5.07301 25.2935C5.058 25.2879 5.04598 25.2743 5.01686 25.2414C5.01686 25.1932 4.959 25.1932 4.959 25.1932H4.91768C4.58708 25.0409 4.3226 24.8885 4.00853 24.68C3.31427 24.2149 2.72745 23.7097 2.19023 23.0923C1.44638 22.2102 0.917415 21.1918 0.537225 19.9649C0.1653 18.7861 0 17.503 0 16.1158C0 14.7846 0.1653 13.4535 0.52896 12.2827C0.90915 11.0478 1.43811 10.0294 2.18196 9.09916C2.92581 8.23312 3.83496 7.51141 4.90941 6.99819C5.90121 6.54913 7.02525 6.2845 8.29806 6.22837C9.15763 6.18026 9.90147 6.22837 10.48 6.3246L11.2652 6.48498C11.2652 6.54111 11.3231 6.54111 11.3644 6.54111C11.4305 6.59724 11.4801 6.59724 11.5297 6.59724C11.6371 6.59724 11.7528 6.6614 11.7528 6.6614C12.0669 6.74159 12.4388 6.90197 12.7446 7.06234C13.8191 7.56754 14.7282 8.24113 15.4721 9.17134ZM4.72759 13.4695C4.93422 12.6676 5.1987 11.8898 5.57062 11.2723C5.94255 10.6629 6.42192 10.1497 6.95914 9.79682C7.4881 9.43596 8.11624 9.23549 8.81877 9.23549C9.51303 9.23549 10.0998 9.37983 10.6371 9.74068C11.1578 10.0935 11.5875 10.5426 11.9595 11.1199C12.3314 11.7374 12.5959 12.403 12.8108 13.2209C13.0257 14.0389 13.1414 14.8648 13.1414 15.787L13.1248 16.0917C13.1248 17.0139 13.0257 17.9361 12.8604 18.754C12.6537 19.58 12.381 20.2937 12.0091 20.9191C11.6454 21.5286 11.166 21.9857 10.6371 22.3465C10.1081 22.7074 9.46344 22.8597 8.77744 22.8597C8.07492 22.8597 7.43851 22.6993 6.90129 22.3465C6.37233 21.9857 5.89296 21.5286 5.52103 20.9031C5.19043 20.3979 4.94248 19.6842 4.71933 18.8182C4.50444 17.9922 4.44658 17.054 4.44658 16.1398C4.44658 15.2176 4.50444 14.2955 4.71106 13.4775L4.72759 13.4695Z" fill="white"/>
</svg>
